<svg width="17" height="16" viewBox="0 0 17 16" fill="none" xmlns="http://www.w3.org/2000/svg">
<path d="M14.7031 8C14.7031 9.72391 14.0183 11.3772 12.7993 12.5962C11.5803 13.8152 9.92703 14.5 8.20312 14.5C6.47922 14.5 4.82592 13.8152 3.60693 12.5962C2.38794 11.3772 1.70312 9.72391 1.70312 8C1.70312 6.27609 2.38794 4.62279 3.60693 3.40381C4.82592 2.18482 6.47922 1.5 8.20312 1.5C9.92703 1.5 11.5803 2.18482 12.7993 3.40381C14.0183 4.62279 14.7031 6.27609 14.7031 8ZM0.203125 8C0.203125 10.1217 1.04598 12.1566 2.54627 13.6569C4.04656 15.1571 6.08139 16 8.20312 16C10.3249 16 12.3597 15.1571 13.86 13.6569C15.3603 12.1566 16.2031 10.1217 16.2031 8C16.2031 5.87827 15.3603 3.84344 13.86 2.34315C12.3597 0.842855 10.3249 0 8.20312 0C6.08139 0 4.04656 0.842855 2.54627 2.34315C1.04598 3.84344 0.203125 5.87827 0.203125 8ZM7.45312 3.75V8C7.45312 8.25 7.57812 8.48438 7.7875 8.625L10.7875 10.625C11.1313 10.8562 11.5969 10.7625 11.8281 10.4156C12.0594 10.0687 11.9656 9.60625 11.6187 9.375L8.95312 7.6V3.75C8.95312 3.33437 8.61875 3 8.20312 3C7.7875 3 7.45312 3.33437 7.45312 3.75Z" fill="#E2BD42"/>
</svg>
