<svg width="17" height="16" viewBox="0 0 17 16" fill="none" xmlns="http://www.w3.org/2000/svg">
<g clip-path="url(#clip0_1_318)">
<path d="M9.48438 3C7.02812 3 4.95 4.60938 4.24375 6.82813C5.29375 6.29688 6.47813 6 7.73438 6H10.4844C10.7594 6 10.9844 6.225 10.9844 6.5C10.9844 6.775 10.7594 7 10.4844 7H9.98438H7.73438C7.21562 7 6.7125 7.05938 6.22813 7.16875C5.41875 7.35313 4.66563 7.68125 3.99688 8.12813C2.18125 9.3375 0.984375 11.4031 0.984375 13.75V14.25C0.984375 14.6656 1.31875 15 1.73438 15C2.15 15 2.48438 14.6656 2.48438 14.25V13.75C2.48438 12.2281 3.13125 10.8594 4.16563 9.9C4.78438 12.2594 6.93125 14 9.48438 14H9.51562C13.6438 13.9781 16.9844 9.90938 16.9844 4.89375C16.9844 3.5625 16.75 2.29688 16.325 1.15625C16.2437 0.940628 15.9281 0.950003 15.8188 1.15313C15.2313 2.25313 14.0688 3 12.7344 3H9.48438Z" fill="#E2BD42"/>
</g>
<defs>
<clipPath id="clip0_1_318">
<path d="M0.984375 0H16.9844V16H0.984375V0Z" fill="white"/>
</clipPath>
</defs>
</svg>
