<svg width="20" height="11" viewBox="0 0 20 11" fill="none" xmlns="http://www.w3.org/2000/svg">
<path d="M10 2C10.5531 2 11 1.55313 11 1C11 0.446875 10.5531 0 10 0H6C5.44688 0 5 0.446875 5 1C5 1.55313 5.44688 2 6 2H7V3H4.5H3H1.5C0.671875 3 0 3.67188 0 4.5V6.525C0 7.11875 0.35 7.65625 0.890625 7.89688L3 8.83438V9.5C3 10.3281 3.67188 11 4.5 11H12.5969C13.1719 11 13.7156 10.7531 14.0969 10.3219L19.7969 3.86562C20.1812 3.43125 19.7875 2.75937 19.2219 2.88125L14 4L12.4219 3.2125C12.1438 3.075 11.8375 3 11.5281 3H9V2H10ZM3 4.5V7.19063L1.5 6.525V4.5H3Z" fill="#E2BD42"/>
</svg>
