<svg width="15" height="19" viewBox="0 0 15 19" fill="none" xmlns="http://www.w3.org/2000/svg">
<path d="M7.5 18.875C3.35938 18.875 0 14.8906 0 10.75C0 6.375 2.5 0.125 7.5 0.125C12.5 0.125 15 6.375 15 10.75C15 14.8906 11.6406 18.875 7.5 18.875ZM6.04688 4.73438C6.30078 4.5 6.32031 4.10547 6.08594 3.85156C5.85156 3.59766 5.45703 3.57812 5.20312 3.8125C4.26953 4.66406 3.59766 5.87109 3.16016 7.10156C2.72266 8.33203 2.5 9.64453 2.5 10.75C2.5 11.0938 2.78125 11.375 3.125 11.375C3.46875 11.375 3.75 11.0938 3.75 10.75C3.75 9.79297 3.94531 8.625 4.33984 7.51562C4.73438 6.40234 5.31641 5.40234 6.04688 4.73438Z" fill="#E2BD42"/>
</svg>
