<svg width="16" height="19" viewBox="0 0 16 19" fill="none" xmlns="http://www.w3.org/2000/svg">
<path d="M7.87506 0.25C7.25279 0.25 6.75006 0.752734 6.75006 1.375V2.05C4.18365 2.57031 2.25006 4.84141 2.25006 7.5625V8.22344C2.25006 9.87578 1.64186 11.4719 0.544981 12.7094L0.284825 13.0012C-0.0104874 13.3316 -0.0807999 13.8063 0.098497 14.2105C0.277794 14.6148 0.682091 14.875 1.12506 14.875H14.6251C15.068 14.875 15.4688 14.6148 15.6516 14.2105C15.8344 13.8063 15.7606 13.3316 15.4653 13.0012L15.2051 12.7094C14.1083 11.4719 13.5001 9.8793 13.5001 8.22344V7.5625C13.5001 4.84141 11.5665 2.57031 9.00006 2.05V1.375C9.00006 0.752734 8.49732 0.25 7.87506 0.25ZM9.46764 17.5926C9.88951 17.1707 10.1251 16.5977 10.1251 16H7.87506H5.62506C5.62506 16.5977 5.86061 17.1707 6.28248 17.5926C6.70436 18.0145 7.2774 18.25 7.87506 18.25C8.47272 18.25 9.04576 18.0145 9.46764 17.5926Z" fill="#E2BD42"/>
</svg>
