<svg width="17" height="16" viewBox="0 0 17 16" fill="none" xmlns="http://www.w3.org/2000/svg">
<g clip-path="url(#clip0_1_335)">
<path d="M16.4156 0.346884C16.0719 -0.0499914 15.4844 -0.115616 15.0625 0.193759L8.54063 5.00001H13.0719L16.3625 1.70626C16.7313 1.33751 16.7563 0.743759 16.4125 0.346884H16.4156ZM1.65625 6.00001C1.10312 6.00001 0.65625 6.44688 0.65625 7.00001C0.65625 7.55313 1.10312 8.00001 1.65625 8.00001C1.65625 10.5781 3.0125 12.6156 5.52812 13.5063C5.18125 13.9406 4.92188 14.4531 4.78125 15.0094C4.64375 15.5438 5.10313 16 5.65625 16H11.6562C12.2094 16 12.6687 15.5438 12.5344 15.0094C12.3938 14.4531 12.1344 13.9438 11.7875 13.5063C14.3 12.6156 15.6562 10.5781 15.6562 8.00001C16.2094 8.00001 16.6562 7.55313 16.6562 7.00001C16.6562 6.44688 16.2094 6.00001 15.6562 6.00001H1.65625Z" fill="#E2BD42"/>
</g>
<defs>
<clipPath id="clip0_1_335">
<path d="M0.65625 0H16.6562V16H0.65625V0Z" fill="white"/>
</clipPath>
</defs>
</svg>
