<svg width="24" height="31" viewBox="0 0 24 31" fill="none" xmlns="http://www.w3.org/2000/svg">
<g clip-path="url(#clip0_1_86)">
<path d="M4.5 0.75C2.43164 0.75 0.75 2.43164 0.75 4.5V27C0.75 29.0684 2.43164 30.75 4.5 30.75H19.5C21.5684 30.75 23.25 29.0684 23.25 27V4.5C23.25 2.43164 21.5684 0.75 19.5 0.75H4.5ZM6.375 4.5H17.625C18.6621 4.5 19.5 5.33789 19.5 6.375V8.25C19.5 9.28711 18.6621 10.125 17.625 10.125H6.375C5.33789 10.125 4.5 9.28711 4.5 8.25V6.375C4.5 5.33789 5.33789 4.5 6.375 4.5ZM8.25 13.875C8.25 14.3723 8.05246 14.8492 7.70083 15.2008C7.34919 15.5525 6.87228 15.75 6.375 15.75C5.87772 15.75 5.40081 15.5525 5.04917 15.2008C4.69754 14.8492 4.5 14.3723 4.5 13.875C4.5 13.3777 4.69754 12.9008 5.04917 12.5492C5.40081 12.1975 5.87772 12 6.375 12C6.87228 12 7.34919 12.1975 7.70083 12.5492C8.05246 12.9008 8.25 13.3777 8.25 13.875ZM6.375 21.375C5.87772 21.375 5.40081 21.1775 5.04917 20.8258C4.69754 20.4742 4.5 19.9973 4.5 19.5C4.5 19.0027 4.69754 18.5258 5.04917 18.1742C5.40081 17.8225 5.87772 17.625 6.375 17.625C6.87228 17.625 7.34919 17.8225 7.70083 18.1742C8.05246 18.5258 8.25 19.0027 8.25 19.5C8.25 19.9973 8.05246 20.4742 7.70083 20.8258C7.34919 21.1775 6.87228 21.375 6.375 21.375ZM4.5 25.125C4.5 24.0879 5.33789 23.25 6.375 23.25H12C13.0371 23.25 13.875 24.0879 13.875 25.125C13.875 26.1621 13.0371 27 12 27H6.375C5.33789 27 4.5 26.1621 4.5 25.125ZM12 15.75C11.5027 15.75 11.0258 15.5525 10.6742 15.2008C10.3225 14.8492 10.125 14.3723 10.125 13.875C10.125 13.3777 10.3225 12.9008 10.6742 12.5492C11.0258 12.1975 11.5027 12 12 12C12.4973 12 12.9742 12.1975 13.3258 12.5492C13.6775 12.9008 13.875 13.3777 13.875 13.875C13.875 14.3723 13.6775 14.8492 13.3258 15.2008C12.9742 15.5525 12.4973 15.75 12 15.75ZM13.875 19.5C13.875 19.9973 13.6775 20.4742 13.3258 20.8258C12.9742 21.1775 12.4973 21.375 12 21.375C11.5027 21.375 11.0258 21.1775 10.6742 20.8258C10.3225 20.4742 10.125 19.9973 10.125 19.5C10.125 19.0027 10.3225 18.5258 10.6742 18.1742C11.0258 17.8225 11.5027 17.625 12 17.625C12.4973 17.625 12.9742 17.8225 13.3258 18.1742C13.6775 18.5258 13.875 19.0027 13.875 19.5ZM17.625 15.75C17.1277 15.75 16.6508 15.5525 16.2992 15.2008C15.9475 14.8492 15.75 14.3723 15.75 13.875C15.75 13.3777 15.9475 12.9008 16.2992 12.5492C16.6508 12.1975 17.1277 12 17.625 12C18.1223 12 18.5992 12.1975 18.9508 12.5492C19.3025 12.9008 19.5 13.3777 19.5 13.875C19.5 14.3723 19.3025 14.8492 18.9508 15.2008C18.5992 15.5525 18.1223 15.75 17.625 15.75ZM19.5 19.5C19.5 19.9973 19.3025 20.4742 18.9508 20.8258C18.5992 21.1775 18.1223 21.375 17.625 21.375C17.1277 21.375 16.6508 21.1775 16.2992 20.8258C15.9475 20.4742 15.75 19.9973 15.75 19.5C15.75 19.0027 15.9475 18.5258 16.2992 18.1742C16.6508 17.8225 17.1277 17.625 17.625 17.625C18.1223 17.625 18.5992 17.8225 18.9508 18.1742C19.3025 18.5258 19.5 19.0027 19.5 19.5ZM17.625 27C17.1277 27 16.6508 26.8025 16.2992 26.4508C15.9475 26.0992 15.75 25.6223 15.75 25.125C15.75 24.6277 15.9475 24.1508 16.2992 23.7992C16.6508 23.4475 17.1277 23.25 17.625 23.25C18.1223 23.25 18.5992 23.4475 18.9508 23.7992C19.3025 24.1508 19.5 24.6277 19.5 25.125C19.5 25.6223 19.3025 26.0992 18.9508 26.4508C18.5992 26.8025 18.1223 27 17.625 27Z" fill="#E2BD42"/>
</g>
<defs>
<clipPath id="clip0_1_86">
<path d="M0.75 0.75H23.25V30.75H0.75V0.75Z" fill="white"/>
</clipPath>
</defs>
</svg>
