<svg width="15" height="16" viewBox="0 0 15 16" fill="none" xmlns="http://www.w3.org/2000/svg">
<g clip-path="url(#clip0_1_693)">
<path d="M3.98438 0C2.32812 0 0.984375 1.34375 0.984375 3V13C0.984375 14.6562 2.32812 16 3.98438 16H12.9844H13.9844C14.5375 16 14.9844 15.5531 14.9844 15C14.9844 14.4469 14.5375 14 13.9844 14V12C14.5375 12 14.9844 11.5531 14.9844 11V1C14.9844 0.446875 14.5375 0 13.9844 0H12.9844H3.98438ZM3.98438 12H11.9844V14H3.98438C3.43125 14 2.98438 13.5531 2.98438 13C2.98438 12.4469 3.43125 12 3.98438 12ZM4.98438 4.5C4.98438 4.225 5.20937 4 5.48438 4H11.4844C11.7594 4 11.9844 4.225 11.9844 4.5C11.9844 4.775 11.7594 5 11.4844 5H5.48438C5.20937 5 4.98438 4.775 4.98438 4.5ZM5.48438 6H11.4844C11.7594 6 11.9844 6.225 11.9844 6.5C11.9844 6.775 11.7594 7 11.4844 7H5.48438C5.20937 7 4.98438 6.775 4.98438 6.5C4.98438 6.225 5.20937 6 5.48438 6Z" fill="#E2BD42"/>
</g>
<defs>
<clipPath id="clip0_1_693">
<path d="M0.984375 0H14.9844V16H0.984375V0Z" fill="white"/>
</clipPath>
</defs>
</svg>
