<svg width="31" height="31" viewBox="0 0 31 31" fill="none" xmlns="http://www.w3.org/2000/svg">
<g clip-path="url(#clip0_1_10)">
<g clip-path="url(#clip1_1_10)">
<path d="M17.1621 13.3828L2.19141 28.3477C1.64062 28.8984 1.64062 29.7891 2.19141 30.334C2.74219 30.8789 3.63281 30.8848 4.17773 30.334L7.51758 26.9941H11.502C14.4141 26.9941 17.2383 26.1504 19.6465 24.5918C20.2969 24.1699 19.9688 23.2441 19.1895 23.2441C18.8906 23.2441 18.6504 23.0039 18.6504 22.7051C18.6504 22.4648 18.8086 22.2598 19.0312 22.1895L23.7773 20.7656C23.9238 20.7188 24.0586 20.6426 24.1699 20.5312L25.4824 19.2188C26.0742 18.627 25.6523 17.6191 24.8203 17.6191H22.9336C22.6348 17.6191 22.3945 17.3789 22.3945 17.0801C22.3945 16.8398 22.5527 16.6348 22.7754 16.5645L29.3379 14.5957C29.5723 14.5254 29.7715 14.3672 29.8828 14.1445C30.5156 12.9141 30.8438 11.5371 30.8438 10.125C30.8438 7.72266 29.8887 5.41992 28.1895 3.7207L27.8672 3.39844C26.1738 1.70508 23.8711 0.75 21.4688 0.75C19.0664 0.75 16.7637 1.70508 15.0645 3.4043L8.98828 9.48047C6.17578 12.293 4.59375 16.1074 4.59375 20.0859V23.3262L15.7031 12.2227C16.0664 11.8594 16.6641 11.8594 17.0273 12.2227C17.3438 12.5391 17.3848 13.0195 17.1562 13.3828H17.1621Z" fill="#E2BD42"/>
</g>
</g>
<defs>
<clipPath id="clip0_1_10">
<rect width="30" height="30" fill="white" transform="translate(0.84375 0.75)"/>
</clipPath>
<clipPath id="clip1_1_10">
<path d="M0.84375 0.75H30.8438V30.75H0.84375V0.75Z" fill="white"/>
</clipPath>
</defs>
</svg>
