<svg width="21" height="21" viewBox="0 0 21 21" fill="none" xmlns="http://www.w3.org/2000/svg">
<g clip-path="url(#clip0_1_164)">
<path d="M6.75 10.8594C6.75 11.1914 6.61719 11.5078 6.38281 11.7422L5.33594 12.7891C4.85547 13.2695 4.06641 13.2344 3.40625 13.0703C3.22656 13.0234 3.03906 13 2.84375 13C1.55078 13 0.5 14.0508 0.5 15.3438C0.5 16.6367 1.55078 17.6875 2.84375 17.6875C3.08984 17.6875 3.3125 17.9102 3.3125 18.1562C3.3125 19.4492 4.36328 20.5 5.65625 20.5C6.94922 20.5 8 19.4492 8 18.1562C8 17.9609 7.97656 17.7734 7.92969 17.5898C7.76562 16.9297 7.72656 16.1406 8.21094 15.6602L9.25781 14.6133C9.49219 14.3789 9.80859 14.2461 10.1406 14.2461H13.625C13.8711 14.2461 14.1094 14.2344 14.3477 14.207C14.8125 14.1602 14.9883 13.6016 14.7695 13.1914C14.4375 12.5742 14.25 11.8711 14.25 11.1211C14.25 8.70312 16.207 6.74609 18.625 6.74609C18.9375 6.74609 19.2383 6.77734 19.5312 6.83984C19.9883 6.9375 20.4727 6.60938 20.3906 6.15234C19.8164 2.94141 17.0039 0.5 13.625 0.5C9.82812 0.5 6.75 3.57812 6.75 7.375V10.8594Z" fill="#E2BD42"/>
</g>
<defs>
<clipPath id="clip0_1_164">
<path d="M0.5 0.5H20.5V20.5H0.5V0.5Z" fill="white"/>
</clipPath>
</defs>
</svg>
