<svg width="20" height="16" viewBox="0 0 20 16" fill="none" xmlns="http://www.w3.org/2000/svg">
<g clip-path="url(#clip0_1_361)">
<g clip-path="url(#clip1_1_361)">
<path d="M12 1H16C16.5531 1 17 1.44687 17 2C17 2.55312 16.5531 3 16 3H12.45C12.2875 3.80625 11.7343 4.47188 11 4.79063V14H16C16.5531 14 17 14.4469 17 15C17 15.5531 16.5531 16 16 16H9.99997H3.99997C3.44685 16 2.99997 15.5531 2.99997 15C2.99997 14.4469 3.44685 14 3.99997 14H8.99997V4.79063C8.2656 4.46875 7.71247 3.80312 7.54997 3H3.99997C3.44685 3 2.99997 2.55312 2.99997 2C2.99997 1.44687 3.44685 1 3.99997 1H7.99997C8.45622 0.39375 9.18122 0 9.99997 0C10.8187 0 11.5437 0.39375 12 1ZM13.7375 10H18.2625L16 6.11875L13.7375 10ZM16 13C14.0343 13 12.4 11.9375 12.0625 10.5344C11.9812 10.1906 12.0937 9.8375 12.2718 9.53125L15.2468 4.43125C15.4031 4.1625 15.6906 4 16 4C16.3093 4 16.5968 4.16563 16.7531 4.43125L19.7281 9.53125C19.9062 9.8375 20.0187 10.1906 19.9375 10.5344C19.6 11.9375 17.9656 13 16 13ZM3.96247 6.11875L1.69997 10H6.2281L3.96247 6.11875ZM0.0280995 10.5344C-0.0531505 10.1906 0.0593495 9.8375 0.237474 9.53125L3.21247 4.43125C3.36872 4.1625 3.65622 4 3.9656 4C4.27497 4 4.56247 4.16563 4.71872 4.43125L7.69372 9.53125C7.87185 9.8375 7.98435 10.1906 7.9031 10.5344C7.56247 11.9375 5.9281 13 3.96247 13C1.99685 13 0.365599 11.9375 0.0280995 10.5344Z" fill="#E2BD42"/>
</g>
</g>
<defs>
<clipPath id="clip0_1_361">
<rect width="20" height="16" fill="white"/>
</clipPath>
<clipPath id="clip1_1_361">
<path d="M0 0H20V16H0V0Z" fill="white"/>
</clipPath>
</defs>
</svg>
