<svg width="16" height="16" viewBox="0 0 16 16" fill="none" xmlns="http://www.w3.org/2000/svg">
<g clip-path="url(#clip0_1_243)">
<path d="M15.7813 1.28126C16.075 0.987514 16.075 0.512514 15.7813 0.221889C15.4875 -0.0687362 15.0125 -0.0718612 14.7219 0.221889L11.9688 2.96876C11.675 3.26251 11.675 3.73751 11.9688 4.02814C12.2625 4.31876 12.7375 4.32189 13.0281 4.02814L15.7781 1.27814L15.7813 1.28126ZM9.54689 0.853139C9.35314 0.659389 9.03439 0.659389 8.84064 0.853139L8.48439 1.20626C7.31251 2.37814 7.31251 4.27814 8.48439 5.45001L8.80939 5.77501L7.85626 6.72814C7.75001 5.87501 7.37189 5.04689 6.71564 4.39064L6.36251 4.03751C6.16876 3.84376 5.85001 3.84376 5.65626 4.03751L5.30314 4.39064C4.13126 5.56251 4.13126 7.46251 5.30314 8.63439L5.62814 8.95939L4.67501 9.91251C4.56876 9.05939 4.19064 8.23126 3.53439 7.57501L3.18126 7.21876C2.98751 7.02501 2.66876 7.02501 2.47501 7.21876L2.12189 7.57189C0.950012 8.74376 0.950012 10.6438 2.12189 11.8156L2.44689 12.1406L0.293762 14.2938C-0.0968628 14.6844 -0.0968628 15.3188 0.293762 15.7094C0.684387 16.1 1.31876 16.1 1.70939 15.7094L3.86251 13.5563L4.24376 13.9375C5.41564 15.1094 7.31564 15.1094 8.48751 13.9375L8.84064 13.5844C9.03439 13.3906 9.03439 13.0719 8.84064 12.8781L8.48751 12.525C7.80626 11.8438 6.93751 11.4594 6.04689 11.3719L7.04376 10.375L7.42501 10.7563C8.59689 11.9281 10.4969 11.9281 11.6688 10.7563L12.0219 10.4031C12.2156 10.2094 12.2156 9.89064 12.0219 9.69689L11.6688 9.34376C10.9875 8.66251 10.1188 8.27814 9.22814 8.19064L10.225 7.19376L10.6063 7.57501C11.7781 8.74689 13.6781 8.74689 14.85 7.57501L15.2031 7.21876C15.3969 7.02501 15.3969 6.70626 15.2031 6.51251L14.85 6.15626C14.6875 5.99376 14.5188 5.85001 14.3375 5.72189L15.7813 4.28126C16.075 3.98751 16.075 3.51251 15.7813 3.22189C15.4875 2.93126 15.0125 2.92814 14.7219 3.22189L12.8656 5.07814C12.2219 4.94064 11.5531 4.96251 10.9188 5.14376C11.1094 4.47814 11.125 3.77501 10.9625 3.10314L12.7813 1.28126C13.075 0.987514 13.075 0.512514 12.7813 0.221889C12.4875 -0.0687362 12.0125 -0.0718612 11.7219 0.221889L10.2844 1.65314C10.1688 1.49689 10.0406 1.34689 9.89689 1.20626L9.54689 0.853139Z" fill="#E2BD42"/>
</g>
<defs>
<clipPath id="clip0_1_243">
<path d="M0 0H16V16H0V0Z" fill="white"/>
</clipPath>
</defs>
</svg>
